<!DOCTYPE svg PUBLIC "-//W3C//DTD SVG 1.1//EN" "http://www.w3.org/Graphics/SVG/1.1/DTD/svg11.dtd">
<!-- Uploaded to: SVG Repo, www.svgrepo.com, Transformed by: SVG Repo Mixer Tools -->
<svg fill="gray" width="800px" height="800px" viewBox="0 0 24 24" xmlns="http://www.w3.org/2000/svg" stroke="gray">
<g id="SVGRepo_bgCarrier" stroke-width="0"/>
<g id="SVGRepo_tracerCarrier" stroke-linecap="round" stroke-linejoin="round"/>
<g id="SVGRepo_iconCarrier">
<path d="M12.707 2.293a.999.999 0 0 0-1.414 0l-9 9A1 1 0 0 0 3 13h1v7c0 1.103.897 2 2 2h12c1.103 0 2-.897 2-2v-7h1a.999.999 0 0 0 .707-1.707l-9-9zM18.001 20H6v-9.586l6-6 6 6V15l.001 5z"/>
<path d="M13 10h-2v3H8v2h3v3h2v-3h3v-2h-3z"/>
</g>
</svg>